# Blender v2.79 (sub 0) OBJ File: 'drone.blend'
# www.blender.org
mtllib drone_body.mtl
o body
v 0.000000 -0.005000 -0.150000
v 0.000000 0.010000 -0.150000
v 0.029264 -0.010000 -0.147118
v 0.029264 0.010000 -0.147118
v 0.057403 -0.010000 -0.138582
v 0.057403 0.010000 -0.138582
v 0.083336 -0.010000 -0.124720
v 0.083336 0.010000 -0.124720
v 0.106066 -0.010000 -0.106066
v 0.106066 0.010000 -0.106066
v 0.124720 -0.010000 -0.083336
v 0.124720 0.010000 -0.083336
v 0.138582 -0.010000 -0.057403
v 0.138582 0.010000 -0.057403
v 0.147118 -0.010000 -0.029264
v 0.147118 0.010000 -0.029264
v 0.150000 -0.010000 -0.000000
v 0.150000 0.010000 -0.000000
v 0.147118 -0.010000 0.029264
v 0.147118 0.010000 0.029264
v 0.138582 -0.010000 0.057402
v 0.138582 0.010000 0.057402
v 0.124720 -0.010000 0.083336
v 0.124720 0.010000 0.083336
v 0.106066 -0.010000 0.106066
v 0.106066 0.010000 0.106066
v 0.083336 -0.010000 0.124720
v 0.083336 0.010000 0.124720
v 0.057402 -0.010000 0.138582
v 0.057402 0.010000 0.138582
v 0.029264 -0.005000 0.147118
v 0.029264 0.010000 0.147118
v -0.000000 0.005000 0.150000
v -0.000000 0.060000 0.150000
v -0.029264 -0.005000 0.147118
v -0.029264 0.010000 0.147118
v -0.057403 -0.010000 0.138582
v -0.057403 0.010000 0.138582
v -0.083336 -0.010000 0.124720
v -0.083336 0.010000 0.124720
v -0.106066 -0.010000 0.106066
v -0.106066 0.010000 0.106066
v -0.124721 -0.010000 0.083335
v -0.124721 0.010000 0.083335
v -0.138582 -0.010000 0.057402
v -0.138582 0.010000 0.057402
v -0.147118 -0.010000 0.029263
v -0.147118 0.010000 0.029263
v -0.150000 -0.010000 -0.000000
v -0.150000 0.010000 -0.000000
v -0.147118 -0.010000 -0.029264
v -0.147118 0.010000 -0.029264
v -0.138582 -0.010000 -0.057403
v -0.138582 0.010000 -0.057403
v -0.124720 -0.010000 -0.083336
v -0.124720 0.010000 -0.083336
v -0.106066 -0.010000 -0.106066
v -0.106066 0.010000 -0.106066
v -0.083335 -0.010000 -0.124721
v -0.083335 0.010000 -0.124721
v -0.057402 -0.010000 -0.138582
v -0.057402 0.010000 -0.138582
v -0.029263 -0.010000 -0.147118
v -0.029263 0.010000 -0.147118
v -0.000000 0.080000 0.140000
v 0.020000 0.060000 0.147118
v -0.020000 0.060000 0.147118
v 0.014632 -0.005000 -0.148559
v -0.014632 -0.005000 -0.148559
v 0.014632 0.005000 0.148559
v -0.014632 0.005000 0.148559
v -0.007316 -0.005000 -0.149279
v 0.007316 -0.005000 -0.149279
v 0.014632 -0.005000 -0.148559
v 0.029264 -0.010000 -0.147118
v 0.029264 0.010000 -0.147118
v 0.000000 0.010000 -0.150000
v 0.000000 0.010000 -0.150000
v 0.000000 0.010000 -0.150000
v 0.000000 0.010000 -0.150000
v 0.000000 0.010000 -0.150000
v 0.000000 0.010000 -0.150000
v 0.057403 -0.010000 -0.138582
v 0.057403 0.010000 -0.138582
v 0.083336 -0.010000 -0.124720
v 0.083336 0.010000 -0.124720
v 0.106066 -0.010000 -0.106066
v 0.106066 0.010000 -0.106066
v 0.124720 -0.010000 -0.083336
v 0.124720 0.010000 -0.083336
v 0.138582 -0.010000 -0.057403
v 0.138582 0.010000 -0.057403
v 0.147118 -0.010000 -0.029264
v 0.147118 0.010000 -0.029264
v 0.150000 -0.010000 -0.000000
v 0.150000 0.010000 -0.000000
v 0.147118 -0.010000 0.029264
v 0.147118 0.010000 0.029264
v 0.138582 -0.010000 0.057402
v 0.138582 0.010000 0.057402
v 0.124720 -0.010000 0.083336
v 0.124720 0.010000 0.083336
v 0.106066 -0.010000 0.106066
v 0.106066 0.010000 0.106066
v 0.083336 -0.010000 0.124720
v 0.083336 0.010000 0.124720
v 0.057402 -0.010000 0.138582
v 0.057402 0.010000 0.138582
v 0.029264 -0.005000 0.147118
v 0.029264 0.010000 0.147118
v 0.029264 0.010000 0.147118
v 0.014632 0.005000 0.148559
v -0.000000 0.005000 0.150000
v -0.014632 0.005000 0.148559
v -0.029264 -0.005000 0.147118
v -0.057403 -0.010000 0.138582
v -0.057403 0.010000 0.138582
v -0.029264 0.010000 0.147118
v -0.029264 0.010000 0.147118
v -0.083336 -0.010000 0.124720
v -0.083336 0.010000 0.124720
v -0.106066 -0.010000 0.106066
v -0.106066 0.010000 0.106066
v -0.124721 -0.010000 0.083335
v -0.124721 0.010000 0.083335
v -0.138582 -0.010000 0.057402
v -0.138582 0.010000 0.057402
v -0.147118 -0.010000 0.029263
v -0.147118 0.010000 0.029263
v -0.150000 -0.010000 -0.000000
v -0.150000 0.010000 -0.000000
v -0.147118 -0.010000 -0.029264
v -0.147118 0.010000 -0.029264
v -0.138582 -0.010000 -0.057403
v -0.138582 0.010000 -0.057403
v -0.124720 -0.010000 -0.083336
v -0.124720 0.010000 -0.083336
v -0.106066 -0.010000 -0.106066
v -0.106066 0.010000 -0.106066
v -0.083335 -0.010000 -0.124721
v -0.083335 0.010000 -0.124721
v -0.057402 -0.010000 -0.138582
v -0.057402 0.010000 -0.138582
v -0.029263 -0.010000 -0.147118
v -0.029263 0.010000 -0.147118
v -0.007316 -0.005000 -0.149279
v 0.000000 -0.005000 -0.150000
v -0.000000 0.080000 0.140000
v -0.000000 0.080000 0.140000
v 0.020000 0.060000 0.147118
v 0.020000 0.060000 0.147118
v -0.020000 0.060000 0.147118
v -0.020000 0.060000 0.147118
v -0.014632 -0.005000 -0.148559
v 0.007316 -0.005000 -0.149279
vn 0.0980 0.0000 0.9952
vn -0.0980 0.0000 0.9952
vn 0.0000 1.0000 0.0000
vn 0.1278 0.4435 0.8871
vn 0.9787 0.1813 -0.0964
vn -0.7260 0.6685 -0.1614
vn -0.1278 0.4435 0.8871
vn -0.9787 0.1813 -0.0964
vn 0.7260 0.6685 -0.1614
vn -0.1426 0.0264 0.9894
vn 0.1426 0.0264 0.9894
vn 0.0033 -0.9994 0.0335
vn 0.0033 -0.9994 0.0336
vn -0.0033 -0.9994 0.0333
vn 0.5622 -0.8266 0.0278
vn 0.0980 0.0000 -0.9952
vn 0.0000 0.0000 -1.0000
vn 0.1951 0.0000 -0.9808
vn 0.3827 0.0000 -0.9239
vn 0.2063 0.0000 -0.9785
vn 0.5556 0.0000 -0.8314
vn 0.7071 0.0000 -0.7071
vn 0.8314 0.0000 -0.5556
vn 0.9239 0.0000 -0.3827
vn 0.9808 0.0000 -0.1951
vn 1.0000 0.0000 0.0000
vn 0.9808 0.0000 0.1951
vn 0.9239 0.0000 0.3827
vn 0.8314 0.0000 0.5556
vn 0.7071 0.0000 0.7071
vn 0.5556 0.0000 0.8314
vn 0.3878 0.0000 0.9217
vn 0.3827 0.0000 0.9239
vn 0.2223 0.0000 0.9750
vn -0.2223 0.0000 0.9750
vn -0.3827 0.0000 0.9239
vn -0.3878 0.0000 0.9217
vn -0.5556 0.0000 0.8314
vn -0.7071 0.0000 0.7071
vn -0.8314 0.0000 0.5556
vn -0.9239 0.0000 0.3827
vn -0.9808 0.0000 0.1951
vn -1.0000 0.0000 0.0000
vn -0.9808 0.0000 -0.1951
vn -0.9239 0.0000 -0.3827
vn -0.8314 0.0000 -0.5556
vn -0.7071 0.0000 -0.7071
vn -0.5556 0.0000 -0.8314
vn -0.3827 0.0000 -0.9239
vn -0.2063 0.0000 -0.9785
vn -0.0980 0.0000 -0.9952
vn 0.1942 -0.9047 0.3792
vn 0.2518 -0.4976 0.8300
vn 0.0600 -0.9927 0.1048
vn -0.1856 -0.9541 -0.2350
vn -0.3097 -0.7538 -0.5795
vn -0.3633 -0.9315 -0.0168
vn -0.0600 -0.9927 0.1048
vn -0.2738 -0.9612 0.0323
vn -0.0032 -0.9994 0.0334
vn 0.0032 -0.9994 0.0334
vn 0.0000 -0.9994 0.0334
vn 0.2738 -0.9612 0.0323
vn 0.1688 0.0020 0.9856
vn -0.1688 0.0020 0.9856
vn -0.1951 0.0000 -0.9808
vn 0.3633 -0.9315 -0.0168
vn 0.0551 -0.9983 -0.0181
vn 0.3097 -0.7538 -0.5795
vn 0.1856 -0.9541 -0.2350
vn 0.0181 -0.9997 -0.0129
vn 0.0229 -0.9997 -0.0105
vn 0.0284 -0.9995 -0.0069
vn 0.0351 -0.9994 -0.0017
vn 0.0433 -0.9990 0.0062
vn 0.0540 -0.9984 0.0187
vn 0.0688 -0.9968 0.0398
vn 0.0910 -0.9927 0.0790
vn 0.1277 -0.9784 0.1628
vn -0.0551 -0.9983 -0.0181
vn -0.2518 -0.4976 0.8300
vn -0.1942 -0.9047 0.3792
vn -0.1277 -0.9784 0.1628
vn -0.0910 -0.9927 0.0790
vn -0.0688 -0.9968 0.0398
vn -0.0540 -0.9984 0.0187
vn -0.0433 -0.9990 0.0062
vn -0.0351 -0.9994 -0.0017
vn -0.0284 -0.9995 -0.0069
vn -0.0229 -0.9997 -0.0105
vn -0.0181 -0.9997 -0.0129
vn 0.0000 -0.9994 0.0333
usemtl None
s off
f 34//1 113//1 112//1
f 118//2 115//2 114//2
f 56//3 48//3 40//3
f 6//3 30//3 22//3
f 150//4 148//4 34//4
f 32//5 80//5 151//5
f 152//6 149//6 81//6
f 67//7 34//7 148//7
f 82//8 36//8 153//8
f 66//9 2//9 65//9
f 34//10 67//10 118//10
f 110//11 150//11 34//11
f 33//12 73//12 70//12
f 71//13 69//13 72//13
f 112//1 109//1 110//1
f 110//1 34//1 112//1
f 114//2 113//2 34//2
f 34//2 118//2 114//2
f 40//3 38//3 64//3
f 38//3 119//3 64//3
f 119//3 78//3 64//3
f 64//3 62//3 60//3
f 60//3 58//3 64//3
f 58//3 56//3 64//3
f 56//3 54//3 52//3
f 52//3 50//3 48//3
f 48//3 46//3 44//3
f 44//3 42//3 40//3
f 56//3 52//3 48//3
f 48//3 44//3 40//3
f 40//3 64//3 56//3
f 6//3 4//3 79//3
f 79//3 111//3 30//3
f 30//3 28//3 26//3
f 26//3 24//3 22//3
f 22//3 20//3 18//3
f 18//3 16//3 14//3
f 14//3 12//3 10//3
f 10//3 8//3 6//3
f 6//3 79//3 30//3
f 30//3 26//3 22//3
f 22//3 18//3 14//3
f 14//3 10//3 22//3
f 10//3 6//3 22//3
f 33//14 1//14 73//14
f 71//15 35//15 69//15
s 1
f 74//16 155//16 77//17
f 76//18 83//19 75//20
f 84//19 85//21 83//19
f 86//21 87//22 85//21
f 88//22 89//23 87//22
f 90//23 91//24 89//23
f 92//24 93//25 91//24
f 94//25 95//26 93//25
f 96//26 97//27 95//26
f 98//27 99//28 97//27
f 100//28 101//29 99//28
f 102//29 103//30 101//29
f 104//30 105//31 103//30
f 106//31 107//32 105//31
f 108//33 109//34 107//32
f 115//35 117//36 116//37
f 117//36 120//38 116//37
f 121//38 122//39 120//38
f 123//39 124//40 122//39
f 125//40 126//41 124//40
f 127//41 128//42 126//41
f 129//42 130//43 128//42
f 131//43 132//44 130//43
f 133//44 134//45 132//44
f 135//45 136//46 134//45
f 137//46 138//47 136//46
f 139//47 140//48 138//47
f 141//48 142//49 140//48
f 143//49 144//50 142//49
f 146//51 154//51 77//17
f 61//52 63//53 69//54
f 27//55 29//56 31//57
f 68//58 70//59 73//60
f 72//61 33//62 71//63
f 155//16 147//17 77//17
f 77//17 76//18 74//16
f 76//18 75//20 74//16
f 76//18 84//19 83//19
f 84//19 86//21 85//21
f 86//21 88//22 87//22
f 88//22 90//23 89//23
f 90//23 92//24 91//24
f 92//24 94//25 93//25
f 94//25 96//26 95//26
f 96//26 98//27 97//27
f 98//27 100//28 99//28
f 100//28 102//29 101//29
f 102//29 104//30 103//30
f 104//30 106//31 105//31
f 106//31 108//33 107//32
f 108//33 110//64 109//34
f 115//35 118//65 117//36
f 117//36 121//38 120//38
f 121//38 123//39 122//39
f 123//39 125//40 124//40
f 125//40 127//41 126//41
f 127//41 129//42 128//42
f 129//42 131//43 130//43
f 131//43 133//44 132//44
f 133//44 135//45 134//45
f 135//45 137//46 136//46
f 137//46 139//47 138//47
f 139//47 141//48 140//48
f 141//48 143//49 142//49
f 143//49 145//66 144//50
f 154//51 144//50 145//66
f 145//66 77//17 154//51
f 77//17 147//17 146//51
f 69//54 35//67 41//68
f 35//67 37//69 39//70
f 41//68 35//67 39//70
f 41//68 43//71 69//54
f 43//71 45//72 69//54
f 45//72 47//73 69//54
f 47//73 49//74 69//54
f 49//74 51//75 69//54
f 51//75 53//76 69//54
f 53//76 55//77 69//54
f 55//77 57//78 69//54
f 57//78 59//79 69//54
f 59//79 61//52 69//54
f 31//57 68//58 25//80
f 68//58 3//81 5//82
f 7//83 68//58 5//82
f 7//83 9//84 68//58
f 9//84 11//85 68//58
f 11//85 13//86 68//58
f 13//86 15//87 68//58
f 15//87 17//88 68//58
f 17//88 19//89 68//58
f 19//89 21//90 68//58
f 21//90 23//91 68//58
f 23//91 25//80 68//58
f 25//80 27//55 31//57
f 68//58 31//57 70//59
f 72//61 1//92 33//62
